<?xml version="1.0" encoding="UTF-8"?>
<svg version="1.1" xmlns="http://www.w3.org/2000/svg" width="512" height="512">
<path d="M0 0 C1.12433198 -0.00551503 1.12433198 -0.00551503 2.27137774 -0.01114148 C4.79629703 -0.02220106 7.3211752 -0.02602598 9.84611511 -0.02983093 C11.6510837 -0.03609383 13.45605098 -0.04274047 15.26101685 -0.04974365 C20.17429609 -0.06716861 25.08756559 -0.07770931 30.00086808 -0.08594918 C33.06869251 -0.09109576 36.13651389 -0.09717162 39.20433617 -0.10346031 C48.79756478 -0.12251586 58.39078568 -0.13674668 67.98402959 -0.14507228 C79.06775897 -0.15484954 90.1512889 -0.18118031 101.23494798 -0.22157317 C109.7955069 -0.25170334 118.35600855 -0.26653818 126.91661948 -0.26985329 C132.03257472 -0.27220717 137.14831698 -0.28121142 142.26421547 -0.30631447 C147.0765704 -0.32954627 151.88857137 -0.33384818 156.70096779 -0.32355309 C158.4678566 -0.32305643 160.23476255 -0.32941486 162.00159836 -0.34310913 C164.41303209 -0.36075466 166.82318537 -0.35375905 169.23461914 -0.34057617 C169.93462518 -0.35154542 170.63463122 -0.36251466 171.35584956 -0.37381631 C174.8489107 -0.32767944 176.74004572 0.10428195 179.7186079 1.99015522 C183.35189477 5.74142028 182.92586432 9.21774708 182.90544128 14.22138977 C182.90331886 15.2471386 182.90331886 15.2471386 182.90115356 16.29360962 C182.8955638 18.47400824 182.88301325 20.65430353 182.87028503 22.83467102 C182.86526871 24.31448724 182.86070603 25.79430508 182.85661316 27.27412415 C182.84559774 30.89850659 182.82834016 34.52282872 182.80778503 38.14717102 C183.62456726 38.12098694 184.44134949 38.09480286 185.28288269 38.06782532 C188.99931957 37.96360889 192.71544864 37.89876303 196.43278503 37.83467102 C197.71798035 37.79277649 199.00317566 37.75088196 200.32731628 37.7077179 C210.99507324 37.56953452 210.99507324 37.56953452 214.64372253 40.41670227 C218.18653461 44.88678465 217.93514344 48.60592012 217.94822693 54.23149109 C217.95268361 55.30220004 217.95268361 55.30220004 217.95723033 56.39453948 C217.96590241 58.78654183 217.9674243 61.17849404 217.96891785 63.57051086 C217.97354701 65.28548286 217.97857181 67.00045382 217.98396301 68.71542358 C217.99707803 73.37453152 218.00353002 78.03362504 218.00797367 82.69274855 C218.01090536 85.60346769 218.01501032 88.51418289 218.01947784 91.42490005 C218.03314934 100.53171056 218.04281815 109.63851207 218.04667974 118.74533212 C218.05116219 129.25848286 218.06872023 139.77150369 218.09768033 150.28461492 C218.11928983 158.41126407 218.1293836 166.53787666 218.13072085 174.66455424 C218.13176925 179.51834204 218.13768457 184.37200767 218.15554047 189.22576523 C218.17200886 193.79105713 218.17418265 198.35613484 218.16540146 202.92144585 C218.16463047 204.59599442 218.16898195 206.27055446 218.17885971 207.94507408 C218.19156487 210.23326575 218.18571075 212.52069713 218.17527771 214.80888367 C218.17674427 216.08866781 218.17821083 217.36845196 218.17972183 218.68701744 C217.66389017 223.48583486 216.25059844 226.86925058 212.62028503 230.08467102 C208.88833744 231.49451789 205.50229231 231.60258298 201.80778503 230.14717102 C198.61014556 227.53196919 196.98205884 226.05579661 196.19254589 221.93944836 C196.19715486 220.71991624 196.20176382 219.50038412 196.20651245 218.24389648 C196.20223236 217.56339233 196.19795227 216.88288818 196.19354248 216.1817627 C196.18528508 213.90092388 196.21284491 211.62193295 196.24015808 209.34126282 C196.24169016 207.6786114 196.24102161 206.01595672 196.23833179 204.35330677 C196.23720353 199.90295217 196.2661697 195.45327052 196.30138397 191.00307465 C196.32987113 186.82635388 196.33120016 182.64979631 196.33476257 178.47297668 C196.36099324 166.26011908 196.43079914 154.04738654 196.49528503 141.83467102 C196.59841003 114.54779602 196.70153503 87.26092102 196.80778503 59.14717102 C121.89778503 59.14717102 46.98778503 59.14717102 -30.19221497 59.14717102 C-30.19221497 194.44717102 -30.19221497 329.74717102 -30.19221497 469.14717102 C-7.09221497 469.14717102 16.00778503 469.14717102 39.80778503 469.14717102 C39.74977722 462.92486633 39.69176941 456.70256165 39.63200378 450.29170227 C39.60645586 446.34961891 39.58238632 442.40763762 39.56364441 438.4655304 C39.53375526 432.20839743 39.49839782 425.95163032 39.43058777 419.69477844 C39.37625899 414.65027547 39.34636248 409.60616479 39.33339882 404.56139183 C39.32416053 402.63682059 39.30612008 400.71227081 39.27913475 398.78786659 C39.24283257 396.09181459 39.23784012 393.3973832 39.24015808 390.7011261 C39.2221817 389.90558823 39.20420532 389.11005035 39.1856842 388.29040527 C39.22328151 384.24857069 39.61903206 382.38609882 42.15576172 379.17504883 C46.29240488 376.01195188 49.40138086 376.0111808 54.47892761 375.97016907 C55.15247787 375.96359787 55.82602814 375.95702667 56.51998901 375.95025635 C58.74743263 375.93055763 60.97480893 375.91886852 63.20231628 375.90888977 C63.96435553 375.90481424 64.72639477 375.90073872 65.51152611 375.89653969 C69.544928 375.87569363 73.57829603 375.86138556 77.61174011 375.852005 C81.77134598 375.84094303 85.93041654 375.80654196 90.08983326 375.76683331 C93.29409765 375.74065258 96.49823473 375.73231192 99.70259666 375.72872353 C101.23556318 375.72386136 102.76852416 375.71225779 104.30138588 375.69368553 C106.45083848 375.66926117 108.59890915 375.67026407 110.74845886 375.67720032 C111.96962906 375.67133408 113.19079926 375.66546783 114.44897461 375.65942383 C119.10026654 376.33485777 122.25170647 378.16441056 125.16859436 381.88111877 C126.15138405 385.36529473 126.06790101 388.81525235 126.03483582 392.40400696 C126.03512787 393.23364456 126.03541992 394.06328217 126.03572083 394.9180603 C126.03432924 397.65599584 126.01877607 400.39365811 126.00309753 403.13154602 C125.9993668 405.03154858 125.99652011 406.93155306 125.99452209 408.83155823 C125.98689042 413.82929304 125.96724589 418.82691138 125.94511414 423.82460022 C125.92104617 429.82264804 125.91187251 435.82073484 125.90020752 441.81881714 C125.88082127 450.92834941 125.84249541 460.03762618 125.80778503 469.14717102 C149.23778503 469.14717102 172.66778503 469.14717102 196.80778503 469.14717102 C196.78160095 464.17501526 196.75541687 459.2028595 196.72843933 454.08003235 C196.6456925 437.67549098 196.59014752 421.27094154 196.54872417 404.86624622 C196.52293504 394.91738059 196.48777093 384.96871256 196.43058777 375.01997375 C196.38077455 366.34933154 196.34849918 357.67883242 196.33734256 349.0080511 C196.33082026 344.41623674 196.3154764 339.8248318 196.27913475 335.23314857 C196.24520806 330.91159569 196.23472525 326.59062101 196.24224663 322.2689476 C196.24087058 320.6826469 196.23091786 319.09632695 196.21175766 317.51014137 C196.18686921 315.3435446 196.19286143 313.17912916 196.20651245 311.01248169 C196.20190349 309.80032392 196.19729452 308.58816614 196.19254589 307.33927631 C196.98346573 303.23566973 198.63086761 301.76664983 201.80778503 299.14717102 C205.30757929 297.39727389 209.10950906 298.17324781 212.80778503 299.14717102 C216.26347938 302.43008065 217.7273457 305.25192173 217.93083286 310.04632854 C217.92991107 311.23820687 217.92898928 312.4300852 217.92803955 313.65808105 C217.92932119 314.65422919 217.92932119 314.65422919 217.93062872 315.67050153 C217.93227831 317.89997528 217.92677065 320.1293741 217.92131042 322.35884094 C217.92102841 323.95532225 217.92118656 325.55180368 217.92175293 327.14828491 C217.92204037 331.48682319 217.9161523 335.82533394 217.90917897 340.1638658 C217.90293651 344.69624807 217.90234093 349.22863094 217.90115356 353.76101685 C217.89804289 362.34575351 217.88983304 370.93047748 217.87980407 379.51520854 C217.86863477 389.28776275 217.86313042 399.06031756 217.85810864 408.83287656 C217.84765022 428.93764848 217.83005586 449.04240895 217.80778503 469.14717102 C218.71020935 469.13146057 219.61263367 469.11575012 220.54240417 469.0995636 C223.91762637 469.04817748 227.29242775 469.01069692 230.66789246 468.9823761 C232.12368871 468.96736789 233.57944035 468.94695469 235.03507996 468.92085266 C237.13781293 468.88411426 239.23994388 468.86736543 241.34294128 468.85420227 C242.60501404 468.83849182 243.86708679 468.82278137 245.16740417 468.80659485 C249.45540898 469.20775954 252.01193058 470.14112195 255.80778503 472.14717102 C257.89401644 475.27651813 258.17533067 476.39071389 258.30778503 480.02217102 C258.35934753 480.8652179 258.41091003 481.70826477 258.46403503 482.57685852 C257.66013451 485.72546889 256.1535367 487.09126996 253.64362288 489.08249144 C250.37890539 490.97583842 246.93624442 490.83095559 243.27757263 490.77637672 C242.00360414 490.78727753 242.00360414 490.78727753 240.70389891 490.79839855 C237.85038324 490.81668479 234.99820555 490.79927648 232.1446991 490.78208923 C230.08138974 490.78784898 228.0180855 490.79578911 225.95479202 490.80572546 C220.27900579 490.82664196 214.60363868 490.81626158 208.92785072 490.80079436 C202.80914563 490.78950451 196.69051377 490.80693182 190.57182312 490.82069397 C179.27618809 490.84166889 167.98072432 490.83981392 156.68509352 490.82613663 C146.25043108 490.81356372 135.81581775 490.81027305 125.38114929 490.81624985 C124.68925909 490.81663177 123.99736888 490.8170137 123.28451231 490.8174072 C120.47597396 490.81896386 117.66743564 490.82055586 114.85889734 490.82220602 C88.50733171 490.83750442 62.1558514 490.82362834 35.80429894 490.79672153 C12.38744651 490.7729931 -11.02926997 490.77511622 -34.44612122 490.79902649 C-60.74917818 490.82579394 -87.05215973 490.83641951 -113.35522842 490.82096517 C-116.15867867 490.81936156 -118.96212894 490.81779736 -121.76557922 490.81624985 C-122.80101677 490.81565677 -122.80101677 490.81565677 -123.85737225 490.81505171 C-134.28602376 490.80936197 -144.7146208 490.81602011 -155.14326477 490.82864761 C-166.99995928 490.8429326 -178.85649322 490.83891193 -190.7131815 490.81224389 C-196.7655556 490.7990807 -202.81765342 490.7939962 -208.87002563 490.81048965 C-214.40675948 490.82535002 -219.94296003 490.81726531 -225.47964525 490.79060189 C-227.48628348 490.78500035 -229.49296644 490.78789462 -231.49957609 490.79998083 C-234.22103138 490.81511976 -236.9406445 490.79966223 -239.66200256 490.77637672 C-240.44669812 490.78808255 -241.23139367 490.79978839 -242.03986788 490.81184894 C-246.00245384 490.74377552 -248.60958409 490.20601233 -251.67774582 487.76409566 C-254.19221497 485.14717102 -254.19221497 485.14717102 -254.95393372 482.64717102 C-254.81961211 478.12265365 -254.69354151 475.82953215 -251.94221497 472.08467102 C-247.60070017 469.02587651 -244.14604905 469.02474727 -238.89533997 469.04951477 C-237.69006653 469.05273743 -236.48479309 469.05596008 -235.24299622 469.0592804 C-233.3616095 469.07184875 -233.3616095 469.07184875 -231.44221497 469.08467102 C-229.53762512 469.0914386 -229.53762512 469.0914386 -227.59455872 469.0983429 C-224.4603966 469.11012546 -221.32632955 469.12657686 -218.19221497 469.14717102 C-218.19373385 468.51677441 -218.19525273 467.88637781 -218.19681764 467.23687828 C-218.28630532 429.88496337 -218.35494873 392.53306431 -218.39647628 355.18106418 C-218.40147919 350.69743555 -218.40665647 346.21380714 -218.41194153 341.73017883 C-218.41299077 340.83755888 -218.41404001 339.94493892 -218.41512105 339.02526988 C-218.4325323 324.56690311 -218.46407395 310.10859987 -218.50082615 295.6502708 C-218.53821554 280.81770303 -218.56044658 265.98516856 -218.56856894 251.15255558 C-218.57406088 241.99800311 -218.59141451 232.84363021 -218.62388083 223.689133 C-218.64500402 217.41387256 -218.65142 211.13870513 -218.64622048 204.86341171 C-218.64365525 201.24136858 -218.6476224 197.61963952 -218.66903687 193.99765205 C-218.69207961 190.07161615 -218.68417677 186.14599064 -218.67323303 182.21989441 C-218.6848844 181.07397792 -218.69653576 179.92806143 -218.7085402 178.74742019 C-218.66206033 172.5991911 -218.40024391 168.78308297 -214.19221497 164.14717102 C-211.21046655 162.65629681 -208.15520755 162.98248163 -204.88435364 162.97016907 C-203.754795 162.96031227 -203.754795 162.96031227 -202.60241699 162.95025635 C-200.10500493 162.9305112 -197.60765304 162.91885803 -195.11018372 162.90888977 C-194.25771875 162.90481424 -193.40525379 162.90073872 -192.52695656 162.89653969 C-188.01490648 162.87567365 -183.50288686 162.86137432 -178.99079895 162.852005 C-174.33000357 162.84094002 -169.66968556 162.80654088 -165.00905895 162.76683331 C-161.42567049 162.74068895 -157.84239612 162.73231512 -154.25892067 162.72872353 C-152.54091989 162.72385182 -150.8229244 162.71222116 -149.10501671 162.69368553 C-146.69904634 162.66933991 -144.29431569 162.67025023 -141.88825989 162.67720032 C-140.82590118 162.65798523 -140.82590118 162.65798523 -139.74208069 162.63838196 C-134.96027112 162.6886692 -132.55079492 163.76579232 -129.19221497 167.14717102 C-123.67456651 178.18246793 -128.19221497 191.809334 -128.19221497 204.14717102 C-102.78221497 204.14717102 -77.37221497 204.14717102 -51.19221497 204.14717102 C-51.21541809 192.9555304 -51.23862122 181.76388977 -51.26252747 170.23310852 C-51.27274421 163.15107635 -51.28245467 156.06904951 -51.28987122 148.98701477 C-51.30174251 137.74139077 -51.31570497 126.49579671 -51.34309387 115.25019836 C-51.36303076 107.06041301 -51.37593213 98.87065194 -51.38039196 90.680843 C-51.38299882 86.34456987 -51.38912408 82.00836619 -51.40367508 77.67211533 C-51.41726369 73.58953181 -51.42143501 69.50704628 -51.41843033 65.42444229 C-51.41897992 63.92727882 -51.42294976 62.43011203 -51.43062592 60.93296814 C-51.44060732 58.88554627 -51.4381724 56.83849216 -51.432724 54.7910614 C-51.43456758 53.64619452 -51.43641117 52.50132763 -51.43831062 51.32176781 C-51.0768837 46.65941507 -50.218272 43.2582808 -47.02156067 39.79658508 C-43.42323604 37.69888198 -41.07258691 37.68823486 -36.92268372 37.75654602 C-35.90117973 37.76503571 -35.90117973 37.76503571 -34.85903931 37.7736969 C-32.69852852 37.79596621 -30.5397185 37.84613784 -28.37971497 37.89717102 C-26.90903591 37.91724855 -25.43833068 37.93549713 -23.96760559 37.95185852 C-20.37526246 37.99579776 -16.7839049 38.06475646 -13.19221497 38.14717102 C-13.21316223 37.2039801 -13.2341095 36.26078918 -13.25569153 35.28901672 C-13.32402925 31.77589578 -13.37409244 28.26348517 -13.41194153 24.74995422 C-13.432007 23.23193692 -13.45926631 21.71399643 -13.49397278 20.19624329 C-13.54271889 18.0091198 -13.56523302 15.8230215 -13.58283997 13.63545227 C-13.60378723 12.32101135 -13.6247345 11.00657043 -13.64631653 9.65229797 C-13.12128339 5.59966316 -12.05390963 4.00055067 -9.19221497 1.14717102 C-6.23721957 -0.33032668 -3.24006675 -0.00084526 0 0 Z M7.80778503 21.14717102 C7.80778503 26.75717102 7.80778503 32.36717102 7.80778503 38.14717102 C58.62778503 38.14717102 109.44778503 38.14717102 161.80778503 38.14717102 C161.80778503 32.53717102 161.80778503 26.92717102 161.80778503 21.14717102 C110.98778503 21.14717102 60.16778503 21.14717102 7.80778503 21.14717102 Z M-197.19221497 183.14717102 C-197.19221497 190.07717102 -197.19221497 197.00717102 -197.19221497 204.14717102 C-181.35221497 204.14717102 -165.51221497 204.14717102 -149.19221497 204.14717102 C-149.19221497 197.21717102 -149.19221497 190.28717102 -149.19221497 183.14717102 C-165.03221497 183.14717102 -180.87221497 183.14717102 -197.19221497 183.14717102 Z M-197.19221497 225.14717102 C-197.19221497 305.66717102 -197.19221497 386.18717102 -197.19221497 469.14717102 C-183.99221497 469.14717102 -170.79221497 469.14717102 -157.19221497 469.14717102 C-157.15483215 465.74017883 -157.11744934 462.33318665 -157.07893372 458.82295227 C-157.03271043 455.51990878 -156.98147957 452.21697824 -156.92976379 448.91401672 C-156.89652862 446.62014135 -156.86849233 444.32618448 -156.84577942 442.03218079 C-156.81220823 438.73291829 -156.75988961 435.43440172 -156.70393372 432.13545227 C-156.69754379 431.11131729 -156.69115387 430.08718231 -156.68457031 429.03201294 C-156.4993084 420.04117851 -156.4993084 420.04117851 -153.19221497 416.14717102 C-150.69937723 414.90075215 -148.96880684 414.99320867 -146.17927551 414.95429993 C-145.13446518 414.938237 -144.08965485 414.92217407 -143.01318359 414.90562439 C-138.23277891 414.86123296 -133.4525138 414.82011222 -128.67195129 414.79707336 C-126.14907105 414.78050646 -123.62623788 414.75320719 -121.10359192 414.71504211 C-117.47012427 414.66033913 -113.83775743 414.63840853 -110.20393372 414.62373352 C-109.07670395 414.60106415 -107.94947418 414.57839478 -106.78808594 414.55503845 C-102.13007137 414.56763063 -99.07522087 414.64260582 -94.985672 416.97944641 C-92.30509323 421.71406519 -92.4650378 425.99577497 -92.48518372 431.35420227 C-92.46250175 432.97499947 -92.46250175 432.97499947 -92.43936157 434.62854004 C-92.39644738 438.07246204 -92.38764252 441.51550815 -92.37971497 444.95967102 C-92.35657371 447.29758499 -92.33120916 449.63547809 -92.30354309 451.9733429 C-92.23647604 457.6984305 -92.21555217 463.42107054 -92.19221497 469.14717102 C-78.66221497 469.14717102 -65.13221497 469.14717102 -51.19221497 469.14717102 C-51.19221497 388.62717102 -51.19221497 308.10717102 -51.19221497 225.14717102 C-99.37221497 225.14717102 -147.55221497 225.14717102 -197.19221497 225.14717102 Z M60.80778503 397.14717102 C60.80778503 420.90717102 60.80778503 444.66717102 60.80778503 469.14717102 C75.32778503 469.14717102 89.84778503 469.14717102 104.80778503 469.14717102 C104.80778503 445.38717102 104.80778503 421.62717102 104.80778503 397.14717102 C90.28778503 397.14717102 75.76778503 397.14717102 60.80778503 397.14717102 Z M-136.19221497 435.14717102 C-136.19221497 446.36717102 -136.19221497 457.58717102 -136.19221497 469.14717102 C-128.60221497 469.14717102 -121.01221497 469.14717102 -113.19221497 469.14717102 C-113.19221497 457.92717102 -113.19221497 446.70717102 -113.19221497 435.14717102 C-120.78221497 435.14717102 -128.37221497 435.14717102 -136.19221497 435.14717102 Z " fill="#000000" transform="translate(254.1922149658203,10.852828979492188)"/>
<path d="M0 0 C0.95153458 -0.00428513 1.90306915 -0.00857025 2.88343811 -0.01298523 C4.88965054 -0.01871113 6.89588372 -0.01924166 8.90209961 -0.01489258 C11.95918427 -0.01173268 15.01530041 -0.03521359 18.07226562 -0.06054688 C20.02734254 -0.06282016 21.98242203 -0.06352323 23.9375 -0.0625 C24.84499496 -0.07170975 25.75248993 -0.08091949 26.68748474 -0.09040833 C32.20769497 -0.05047394 36.26297081 0.40865161 41.03515625 3.30078125 C44.82261815 8.32107795 44.47187411 13.7094104 44.43359375 19.73828125 C44.43646393 20.73657959 44.43933411 21.73487793 44.44229126 22.76342773 C44.44432707 24.86800709 44.43883108 26.97260558 44.42626953 29.07714844 C44.41020941 32.29014581 44.42613506 35.50188529 44.4453125 38.71484375 C44.44332998 40.76432568 44.43948613 42.81380683 44.43359375 44.86328125 C44.43966644 45.81968506 44.44573914 46.77608887 44.45199585 47.76147461 C44.39728426 52.97509885 44.14077683 56.89641576 41.03515625 61.30078125 C36.547681 65.42773361 30.9733676 64.73384844 25.22265625 64.69921875 C23.65294067 64.70352402 23.65294067 64.70352402 22.05151367 64.70791626 C19.84260516 64.70995453 17.6336785 64.70444129 15.42480469 64.69189453 C12.04711479 64.6758381 8.6706215 64.69175188 5.29296875 64.7109375 C3.14452861 64.70895503 0.99608922 64.70511127 -1.15234375 64.69921875 C-2.16079346 64.70529144 -3.16924316 64.71136414 -4.20825195 64.71762085 C-13.22117054 64.62738018 -13.22117054 64.62738018 -16.96484375 61.30078125 C-21.02571879 56.72014974 -20.41535625 51.3172809 -20.3984375 45.5234375 C-20.40367935 44.47933212 -20.4089212 43.43522675 -20.4143219 42.35948181 C-20.42073572 40.15478402 -20.41941341 37.95005197 -20.41088867 35.74536133 C-20.40238207 32.37844687 -20.43114511 29.0132312 -20.46289062 25.64648438 C-20.46450289 23.50130259 -20.46392463 21.35611781 -20.4609375 19.2109375 C-20.47217148 18.20764908 -20.48340546 17.20436066 -20.49497986 16.17066956 C-20.43823795 10.45831584 -20.11115462 6.62242826 -15.96484375 2.30078125 C-10.93092376 -0.29780861 -5.5422704 -0.00555378 0 0 Z M1.03515625 21.30078125 C1.03515625 28.56078125 1.03515625 35.82078125 1.03515625 43.30078125 C8.29515625 43.30078125 15.55515625 43.30078125 23.03515625 43.30078125 C23.03515625 36.04078125 23.03515625 28.78078125 23.03515625 21.30078125 C15.77515625 21.30078125 8.51515625 21.30078125 1.03515625 21.30078125 Z " fill="#000000" transform="translate(370.96484375,278.69921875)"/>
<path d="M0 0 C0.98136932 -0.01591187 1.96273865 -0.03182373 2.97384644 -0.04821777 C4.02806793 -0.04841919 5.08228943 -0.04862061 6.16845703 -0.04882812 C7.25836945 -0.05644165 8.34828186 -0.06405518 9.47122192 -0.07189941 C11.77603872 -0.08270128 14.08090447 -0.08555319 16.38574219 -0.08105469 C19.90659596 -0.08008355 23.42526231 -0.12168255 26.94580078 -0.16601562 C29.18668166 -0.17122358 31.4275701 -0.1739108 33.66845703 -0.17382812 C35.24371658 -0.19842102 35.24371658 -0.19842102 36.85079956 -0.22351074 C45.01538681 -0.14658765 45.01538681 -0.14658765 48.70019531 2.70703125 C51.91521606 6.41682466 52.17095778 9.20508163 52.21240234 14.00146484 C52.22200989 14.90275116 52.23161743 15.80403748 52.24151611 16.7326355 C52.24576599 17.69936188 52.25001587 18.66608826 52.25439453 19.66210938 C52.2600946 20.66323761 52.26579468 21.66436584 52.27166748 22.6958313 C52.281106 24.81234687 52.2876469 26.92887706 52.29150391 29.04541016 C52.3012126 32.2759777 52.33224845 35.50590973 52.36376953 38.73632812 C52.37029971 40.79491811 52.37555013 42.85351263 52.37939453 44.91210938 C52.39174133 45.87478729 52.40408813 46.83746521 52.41680908 47.82931519 C52.39939077 53.09695177 52.09695361 56.91027541 49.05126953 61.41992188 C45.78803555 63.5954112 44.8013241 63.68167614 41.01660156 63.72631836 C39.47953049 63.75029945 39.47953049 63.75029945 37.91140747 63.77476501 C36.80514008 63.78012772 35.69887268 63.78549042 34.55908203 63.79101562 C32.85194534 63.80455833 32.85194534 63.80455833 31.11032104 63.81837463 C28.70117835 63.83289127 26.2919961 63.84176736 23.8828125 63.84545898 C20.19740335 63.85735367 16.51366886 63.90652741 12.82861328 63.95703125 C10.48877771 63.96649539 8.14893185 63.97373047 5.80908203 63.97851562 C4.15575363 64.0078141 4.15575363 64.0078141 2.46902466 64.03770447 C-5.17473464 63.99264543 -5.17473464 63.99264543 -9.12109375 61.07250977 C-11.54246909 57.55818394 -12.07489537 55.00887474 -12.10986328 50.84423828 C-12.11947083 49.91962799 -12.12907837 48.9950177 -12.13897705 48.04238892 C-12.14322693 47.04549042 -12.14747681 46.04859192 -12.15185547 45.02148438 C-12.15755554 43.99437347 -12.16325562 42.96726257 -12.16912842 41.9090271 C-12.1785768 39.73526031 -12.18511176 37.56147922 -12.18896484 35.38769531 C-12.19867225 32.06484977 -12.22969832 28.74262228 -12.26123047 25.41992188 C-12.26776047 23.30794638 -12.27301095 21.19596646 -12.27685547 19.08398438 C-12.29537567 17.59470932 -12.29537567 17.59470932 -12.31427002 16.0753479 C-12.28604352 7.31973518 -12.28604352 7.31973518 -8.94873047 3.41992188 C-5.92767927 0.73263526 -4.0257468 0.03935319 0 0 Z M9.05126953 21.41992188 C9.05126953 28.34992188 9.05126953 35.27992188 9.05126953 42.41992188 C16.31126953 42.41992188 23.57126953 42.41992188 31.05126953 42.41992188 C31.05126953 35.48992187 31.05126953 28.55992187 31.05126953 21.41992188 C23.79126953 21.41992188 16.53126953 21.41992188 9.05126953 21.41992188 Z " fill="#000000" transform="translate(362.94873046875,191.580078125)"/>
<path d="M0 0 C1.53707108 -0.02398109 1.53707108 -0.02398109 3.10519409 -0.04844666 C4.21146149 -0.05380936 5.31772888 -0.05917206 6.45751953 -0.06469727 C7.59561066 -0.07372574 8.73370178 -0.08275421 9.90628052 -0.09205627 C12.31542321 -0.10657291 14.72460546 -0.115449 17.13378906 -0.11914062 C20.81919822 -0.13103531 24.5029327 -0.18020905 28.18798828 -0.23071289 C30.52782385 -0.24017703 32.86766971 -0.24741211 35.20751953 -0.25219727 C36.30973846 -0.27172958 37.4119574 -0.2912619 38.5475769 -0.31138611 C46.1913362 -0.26632707 46.1913362 -0.26632707 50.13769531 2.65380859 C52.53200109 6.1288463 53.09097513 8.6556445 53.12646484 12.77441406 C53.13607239 13.67577591 53.14567993 14.57713776 53.15557861 15.5058136 C53.15982849 16.47770126 53.16407837 17.44958893 53.16845703 18.45092773 C53.1741571 19.45347092 53.17985718 20.4560141 53.18572998 21.48893738 C53.19517864 23.61142929 53.20171343 25.73393587 53.20556641 27.85644531 C53.21526315 31.09588375 53.24628451 34.33468532 53.27783203 37.57397461 C53.28436317 39.63712189 53.2896132 41.7002737 53.29345703 43.76342773 C53.30580383 44.72924271 53.31815063 45.69505768 53.33087158 46.69013977 C53.31357784 51.93870288 53.105543 55.87544758 49.96533203 60.30639648 C45.47785678 64.43334884 39.90354338 63.73946368 34.15283203 63.70483398 C32.58311646 63.70913925 32.58311646 63.70913925 30.98168945 63.71353149 C28.77278094 63.71556976 26.56385429 63.71005653 24.35498047 63.69750977 C20.97729057 63.68145333 17.60079729 63.69736712 14.22314453 63.71655273 C12.07470439 63.71457026 9.926265 63.7107265 7.77783203 63.70483398 C6.26515747 63.71394302 6.26515747 63.71394302 4.72192383 63.72323608 C-4.29099476 63.63299542 -4.29099476 63.63299542 -8.03466797 60.30639648 C-12.05283062 55.7487837 -11.46863151 50.50104831 -11.43310547 44.74780273 C-11.43597565 43.7258934 -11.43884583 42.70398407 -11.44180298 41.65110779 C-11.44384121 39.49347376 -11.43832823 37.33582116 -11.42578125 35.17822266 C-11.4097412 31.88393596 -11.42563012 28.59087922 -11.44482422 25.29663086 C-11.44284142 23.19701879 -11.43899699 21.09740748 -11.43310547 18.99780273 C-11.43917816 18.01638809 -11.44525085 17.03497345 -11.45150757 16.02381897 C-11.39732202 10.72710989 -11.10036843 6.83652038 -8.03466797 2.30639648 C-4.77143399 0.13090716 -3.78472254 0.04464222 0 0 Z M9.96533203 21.30639648 C9.96533203 28.23639648 9.96533203 35.16639648 9.96533203 42.30639648 C17.22533203 42.30639648 24.48533203 42.30639648 31.96533203 42.30639648 C31.96533203 35.37639648 31.96533203 28.44639648 31.96533203 21.30639648 C24.70533203 21.30639648 17.44533203 21.30639648 9.96533203 21.30639648 Z " fill="#000000" transform="translate(362.03466796875,104.693603515625)"/>
<path d="M0 0 C0.85801712 -0.00960754 1.71603424 -0.01921509 2.60005188 -0.02911377 C3.97981453 -0.03548859 3.97981453 -0.03548859 5.38745117 -0.04199219 C6.81899788 -0.0505423 6.81899788 -0.0505423 8.27946472 -0.05926514 C10.2976267 -0.06870288 12.31580401 -0.07524425 14.33398438 -0.07910156 C17.40872328 -0.08879876 20.48279115 -0.11983049 23.55737305 -0.15136719 C25.5215618 -0.15789862 27.48575532 -0.16314854 29.44995117 -0.16699219 C30.36372025 -0.17933899 31.27748932 -0.19168579 32.21894836 -0.20440674 C37.77428572 -0.18518758 41.78246278 0.32197951 46.61791992 3.16113281 C50.81822261 7.56403454 50.08554637 13.42729632 50.08666992 19.15722656 C50.09809021 20.7566787 50.09809021 20.7566787 50.10974121 22.38844299 C50.1205314 24.64020449 50.12339973 26.89201598 50.11889648 29.14379883 C50.11792424 32.58337067 50.15955939 36.02071104 50.20385742 39.45996094 C50.2090647 41.6507115 50.21175261 43.84146981 50.21166992 46.03222656 C50.23626282 47.56996986 50.23626282 47.56996986 50.26135254 49.13877869 C50.21720711 53.71406587 50.17992743 57.11392592 47.26831055 60.79418945 C43.81353871 63.8794891 41.43321827 64.28502422 36.96630859 64.33813477 C36.02490524 64.35097 35.08350189 64.36380524 34.11357117 64.37702942 C33.09793594 64.38441635 32.08230072 64.39180328 31.03588867 64.39941406 C29.9889534 64.40748581 28.94201813 64.41555756 27.86335754 64.4238739 C25.64671482 64.437708 23.43005085 64.44843317 21.21337891 64.45629883 C17.82893395 64.47351321 14.44546545 64.51740653 11.0612793 64.56152344 C8.9069896 64.57165045 6.75269161 64.58016653 4.59838867 64.58691406 C3.58882614 64.60442215 2.57926361 64.62193024 1.53910828 64.63996887 C-4.41049076 64.62166338 -7.86216493 64.15257129 -12.38208008 60.16113281 C-13.61726004 57.69077289 -13.53564864 56.00346285 -13.57495117 53.23999023 C-13.5910141 52.21520065 -13.60707703 51.19041107 -13.62362671 50.13456726 C-13.66802451 45.44575616 -13.70913916 40.75708729 -13.73217773 36.06811523 C-13.74874398 33.59373575 -13.7760424 31.11940425 -13.81420898 28.64526367 C-13.86891859 25.08128992 -13.89084351 21.51843844 -13.90551758 17.95410156 C-13.92818695 16.84874557 -13.95085632 15.74338959 -13.97421265 14.60453796 C-13.95313389 6.9552946 -13.95313389 6.9552946 -11.09936523 2.98657227 C-7.38361608 0.49037672 -4.41688537 0.04012257 0 0 Z M7.61791992 21.16113281 C7.61791992 28.42113281 7.61791992 35.68113281 7.61791992 43.16113281 C14.54791992 43.16113281 21.47791992 43.16113281 28.61791992 43.16113281 C28.61791992 35.90113281 28.61791992 28.64113281 28.61791992 21.16113281 C21.68791992 21.16113281 14.75791992 21.16113281 7.61791992 21.16113281 Z " fill="#000000" transform="translate(271.382080078125,278.8388671875)"/>
<path d="M0 0 C1.13526123 -0.00478363 2.27052246 -0.00956726 3.44018555 -0.01449585 C5.83741646 -0.01789422 8.23469375 -0.00869641 10.63183594 0.01220703 C14.29987994 0.03897042 17.96486361 0.01245382 21.6328125 -0.01953125 C23.96354842 -0.01622714 26.29428243 -0.0098209 28.625 0 C29.72094482 -0.01012115 30.81688965 -0.02024231 31.94604492 -0.03067017 C39.55517542 0.08638072 39.55517542 0.08638072 43.48046875 3.08056641 C45.90377864 6.49787255 46.44281369 8.16927194 46.50537109 12.29394531 C46.52143402 13.25544495 46.53749695 14.21694458 46.55404663 15.20758057 C46.59850026 19.61185019 46.63957034 24.01596858 46.66259766 28.42041016 C46.6791489 30.74245227 46.70642766 33.06444362 46.74462891 35.38623047 C46.79943746 38.73431836 46.82127956 42.08121119 46.8359375 45.4296875 C46.85860687 46.46426086 46.88127625 47.49883423 46.90463257 48.5647583 C46.88106618 56.6194683 46.88106618 56.6194683 43.90478516 60.30371094 C40.54595275 63.36202622 39.09323293 63.78985924 34.68261719 63.84106445 C33.24036774 63.86031731 33.24036774 63.86031731 31.76898193 63.87995911 C30.72631165 63.88734604 29.68364136 63.89473297 28.609375 63.90234375 C27.53882874 63.9104155 26.46828247 63.91848724 25.36529541 63.92680359 C23.09559757 63.94065228 20.82587883 63.95137091 18.55615234 63.95922852 C15.0904165 63.97642399 11.62563867 64.02030214 8.16015625 64.06445312 C5.95573619 64.07458141 3.75130801 64.08309709 1.546875 64.08984375 C0.51230164 64.10735184 -0.52227173 64.12485992 -1.5881958 64.14289856 C-7.5948614 64.12485857 -11.13283269 63.71323147 -15.6875 59.6640625 C-16.92267996 57.19370258 -16.84106856 55.50639254 -16.88037109 52.74291992 C-16.89643402 51.71813034 -16.91249695 50.69334076 -16.92904663 49.63749695 C-16.97344443 44.94868585 -17.01455908 40.26001698 -17.03759766 35.57104492 C-17.0541639 33.09666544 -17.08146232 30.62233393 -17.11962891 28.14819336 C-17.17433851 24.58421961 -17.19626343 21.02136813 -17.2109375 17.45703125 C-17.23360687 16.35167526 -17.25627625 15.24631927 -17.27963257 14.10746765 C-17.26698004 9.51600701 -17.16545177 6.51151722 -14.88525391 2.46850586 C-10.01113964 -0.28188187 -5.50950469 -0.0508808 0 0 Z M4.3125 21.6640625 C4.3125 28.5940625 4.3125 35.5240625 4.3125 42.6640625 C11.2425 42.6640625 18.1725 42.6640625 25.3125 42.6640625 C25.3125 35.7340625 25.3125 28.8040625 25.3125 21.6640625 C18.3825 21.6640625 11.4525 21.6640625 4.3125 21.6640625 Z " fill="#000000" transform="translate(274.6875,104.3359375)"/>
<path d="M0 0 C0.9614241 -0.01606293 1.92284821 -0.03212585 2.91340637 -0.04867554 C7.30505589 -0.09322229 11.69655626 -0.13418218 16.08837891 -0.15722656 C18.40358529 -0.17379043 20.71874046 -0.20108584 23.03369141 -0.23925781 C26.37518793 -0.29405597 29.71548756 -0.31590495 33.05737305 -0.33056641 C34.60452751 -0.36457047 34.60452751 -0.36457047 36.18293762 -0.39926147 C44.20972754 -0.3756987 44.20972754 -0.3756987 47.89404297 2.60058594 C50.9549159 5.95910085 51.38237465 7.41094263 51.43359375 11.82275391 C51.4528466 13.26500336 51.4528466 13.26500336 51.4724884 14.73638916 C51.47987534 15.77905945 51.48726227 16.82172974 51.49487305 17.89599609 C51.50294479 18.96654236 51.51101654 20.03708862 51.51933289 21.14007568 C51.53318157 23.40977352 51.5439002 25.67949226 51.55175781 27.94921875 C51.56895329 31.4149546 51.61283144 34.87973242 51.65698242 38.34521484 C51.66711071 40.54963491 51.67562639 42.75406309 51.68237305 44.95849609 C51.69988113 45.99306946 51.71738922 47.02764282 51.73542786 48.09356689 C51.71738786 54.10023249 51.30576076 57.63820378 47.2565918 62.19287109 C44.80535781 63.41848809 43.1682275 63.33943517 40.42724609 63.36987305 C38.92009285 63.3891259 38.92009285 63.3891259 37.38249207 63.4087677 C36.29293716 63.41615463 35.20338226 63.42354156 34.08081055 63.43115234 C32.96350052 63.43922409 31.84619049 63.44729584 30.69502258 63.45561218 C28.32697099 63.46946056 25.95889936 63.48017933 23.59082031 63.48803711 C19.96926042 63.50525146 16.3486128 63.54913238 12.72729492 63.59326172 C10.42847352 63.60338824 8.12964435 63.61190447 5.83081055 63.61865234 C4.74732834 63.63616043 3.66384613 63.65366852 2.54753113 63.67170715 C-4.98358887 63.64998338 -4.98358887 63.64998338 -8.90429688 61.29125977 C-11.64314407 58.16629074 -11.87520876 56.43398669 -11.92041016 52.36352539 C-11.93324539 51.35875656 -11.94608063 50.35398773 -11.95930481 49.31877136 C-11.96669174 48.22921646 -11.97407867 47.13966156 -11.98168945 46.01708984 C-11.9897612 44.89977982 -11.99783295 43.78246979 -12.00614929 42.63130188 C-12.01999767 40.26325028 -12.03071644 37.89517866 -12.03857422 35.52709961 C-12.05578857 31.90553971 -12.09966949 28.2848921 -12.14379883 24.66357422 C-12.15392535 22.36475282 -12.16244158 20.06592365 -12.16918945 17.76708984 C-12.18669754 16.68360764 -12.20420563 15.60012543 -12.22224426 14.48381042 C-12.20059534 6.97864063 -12.20059534 6.97864063 -9.90429688 3.03198242 C-6.69704318 0.30232 -4.06302502 0.0617842 0 0 Z M9.2565918 21.19287109 C9.2565918 28.12287109 9.2565918 35.05287109 9.2565918 42.19287109 C16.1865918 42.19287109 23.1165918 42.19287109 30.2565918 42.19287109 C30.2565918 35.26287109 30.2565918 28.33287109 30.2565918 21.19287109 C23.3265918 21.19287109 16.3965918 21.19287109 9.2565918 21.19287109 Z " fill="#000000" transform="translate(269.743408203125,191.80712890625)"/>
<path d="M0 0 C3.82210886 1.69871505 5.48017707 3.14367965 7 7 C7.25447559 9.53971767 7.25447559 9.53971767 7.26069641 12.45860291 C7.27132362 14.12201469 7.27132362 14.12201469 7.28216553 15.81903076 C7.27968811 17.03109192 7.27721069 18.24315308 7.2746582 19.49194336 C7.2823246 21.41197929 7.2823246 21.41197929 7.29014587 23.37080383 C7.30353189 26.87908433 7.30411501 30.38725706 7.30158257 33.89555812 C7.3005126 36.82549836 7.30539691 39.75541681 7.310188 42.68535239 C7.32128179 49.59811283 7.32172131 56.51081894 7.31567383 63.42358398 C7.3096331 70.55251221 7.32194774 77.68124312 7.3432439 84.81013769 C7.36086262 90.93340085 7.36686084 97.05660121 7.36360615 103.17988878 C7.36179359 106.83589675 7.3644267 110.49176395 7.37832069 114.14774895 C7.39323543 118.22485023 7.3839266 122.30155012 7.37231445 126.37866211 C7.38378006 128.1937175 7.38378006 128.1937175 7.39547729 130.04544067 C7.38846298 131.15720169 7.38144867 132.26896271 7.3742218 133.41441345 C7.37438954 134.3780226 7.37455729 135.34163176 7.37473011 136.33444118 C6.92364492 139.54313476 5.90433536 141.3955595 4 144 C-0.00254616 146.66836411 -3.29313299 146.8340238 -8 146 C-10.75569447 143.81840855 -12.43588747 142.12822506 -14 139 C-14.10375706 137.26522118 -14.14385236 135.52648511 -14.15390015 133.78863525 C-14.16250061 132.68388855 -14.17110107 131.57914185 -14.17996216 130.44091797 C-14.18422211 129.2232373 -14.18848206 128.00555664 -14.19287109 126.75097656 C-14.20104858 125.47285095 -14.20922607 124.19472534 -14.21765137 122.87786865 C-14.24387691 118.63214224 -14.25918077 114.38640594 -14.2734375 110.140625 C-14.2787972 108.67903385 -14.28417471 107.21744277 -14.28956985 105.75585175 C-14.31120049 99.67545044 -14.32993666 93.59505179 -14.34119225 87.51462173 C-14.35742754 78.80134581 -14.39059237 70.08851611 -14.44759309 61.37540841 C-14.48630583 55.24878567 -14.50582655 49.12228221 -14.51111281 42.99554038 C-14.51476489 39.33652802 -14.52676939 35.67799153 -14.55921555 32.01911163 C-14.59491565 27.93467223 -14.59092204 23.85119025 -14.58349609 19.76660156 C-14.59990143 18.55701782 -14.61630676 17.34743408 -14.63320923 16.10119629 C-14.56509363 6.96265573 -14.56509363 6.96265573 -11.58853149 3.2645874 C-7.58640888 -0.23668599 -5.30875879 -0.35991585 0 0 Z " fill="#000000" transform="translate(133,258)"/>
<path d="M0 0 C3.82245435 1.6988686 5.47925625 3.14391416 7 7 C7.25726891 9.53692436 7.25726891 9.53692436 7.26742554 12.45187378 C7.27595551 13.55936981 7.28448547 14.66686584 7.29327393 15.80792236 C7.29236755 17.01841248 7.29146118 18.22890259 7.29052734 19.47607422 C7.30060318 21.39370071 7.30060318 21.39370071 7.31088257 23.35006714 C7.32854028 26.85427278 7.33323785 30.35838072 7.33451414 33.86262655 C7.33593644 36.05306226 7.34020754 38.24347319 7.34550858 40.43390274 C7.36400817 48.0788353 7.37217929 55.72369814 7.37060547 63.36865234 C7.36940411 70.48965777 7.39050523 77.61036007 7.4220928 84.73128879 C7.44826309 90.84947377 7.45897245 96.96755978 7.45769465 103.08580029 C7.45718523 106.73798158 7.46285709 110.38989346 7.48405075 114.04201889 C7.50705074 118.11660155 7.49790775 122.19050703 7.48583984 126.26513672 C7.49707886 127.47157837 7.50831787 128.67802002 7.51989746 129.92102051 C7.47255193 136.20331246 7.356474 140.28592915 3 145 C-0.47263273 146.73631636 -4.21193013 146.60190402 -8 146 C-10.75569447 143.81840855 -12.43588747 142.12822506 -14 139 C-14.10375706 137.26522118 -14.14385236 135.52648511 -14.15390015 133.78863525 C-14.16250061 132.68388855 -14.17110107 131.57914185 -14.17996216 130.44091797 C-14.18422211 129.2232373 -14.18848206 128.00555664 -14.19287109 126.75097656 C-14.20104858 125.47285095 -14.20922607 124.19472534 -14.21765137 122.87786865 C-14.24387691 118.63214224 -14.25918077 114.38640594 -14.2734375 110.140625 C-14.2787972 108.67903385 -14.28417471 107.21744277 -14.28956985 105.75585175 C-14.31120049 99.67545044 -14.32993666 93.59505179 -14.34119225 87.51462173 C-14.35742754 78.80134581 -14.39059237 70.08851611 -14.44759309 61.37540841 C-14.48630583 55.24878567 -14.50582655 49.12228221 -14.51111281 42.99554038 C-14.51476489 39.33652802 -14.52676939 35.67799153 -14.55921555 32.01911163 C-14.59491565 27.93467223 -14.59092204 23.85119025 -14.58349609 19.76660156 C-14.59990143 18.55701782 -14.61630676 17.34743408 -14.63320923 16.10119629 C-14.56509363 6.96265573 -14.56509363 6.96265573 -11.58853149 3.2645874 C-7.58640888 -0.23668599 -5.30875879 -0.35991585 0 0 Z " fill="#000000" transform="translate(174,258)"/>
<path d="M0 0 C3.8221403 1.69872902 5.4809079 3.14328024 7 7 C7.25726891 9.55533504 7.25726891 9.55533504 7.26742554 12.49656677 C7.27595551 13.61392212 7.28448547 14.73127747 7.29327393 15.88249207 C7.29236755 17.10390396 7.29146118 18.32531586 7.29052734 19.58374023 C7.30060318 21.51840652 7.30060318 21.51840652 7.31088257 23.49215698 C7.32853988 27.02728606 7.33323778 30.5623183 7.33451414 34.09748721 C7.33593627 36.30667613 7.34020698 38.51584046 7.34550858 40.72502327 C7.36400679 48.43364143 7.37217931 56.14219045 7.37060547 63.85083008 C7.36940358 71.03433829 7.39051551 78.21754628 7.4220928 85.40097851 C7.44824777 91.57095198 7.45897312 97.74082734 7.45769465 103.91085583 C7.45718485 107.59486229 7.46287766 111.27860182 7.48405075 114.96255302 C7.50701882 119.07086587 7.49791713 123.17850599 7.48583984 127.28686523 C7.49707886 128.5062529 7.50831787 129.72564056 7.51989746 130.98197937 C7.45818217 139.22278551 7.45818217 139.22278551 5.09463501 143.23207092 C1.75217181 146.05320102 -0.58256999 146.28237648 -4.96484375 146.21875 C-7.93774757 145.89920564 -9.70998159 144.88589752 -12 143 C-14.00995246 139.81260069 -14.25267994 137.31199331 -14.26069641 133.57936096 C-14.26778122 132.47883392 -14.27486603 131.37830688 -14.28216553 130.24443054 C-14.27968811 129.04172012 -14.27721069 127.8390097 -14.2746582 126.59985352 C-14.27976913 125.32958313 -14.28488007 124.05931274 -14.29014587 122.75054932 C-14.3035314 119.26912724 -14.30411506 115.78781376 -14.30158257 112.30637097 C-14.30051256 109.39879862 -14.30539699 106.49124822 -14.310188 103.58368057 C-14.32128162 96.72365771 -14.3217214 89.8636896 -14.31567383 83.00366211 C-14.30963312 75.92926486 -14.32194772 68.85506645 -14.3432439 61.78070313 C-14.36086298 55.70414861 -14.36686078 49.62765738 -14.36360615 43.55107826 C-14.36179364 39.92301555 -14.36442614 36.29509469 -14.37832069 32.66705513 C-14.39323617 28.62108587 -14.38392629 24.57552107 -14.37231445 20.52954102 C-14.37995819 19.32885483 -14.38760193 18.12816864 -14.39547729 16.89109802 C-14.38846298 15.78775116 -14.38144867 14.6844043 -14.3742218 13.54762268 C-14.37447341 12.11327047 -14.37447341 12.11327047 -14.37473011 10.64994144 C-13.81292256 6.6770632 -12.00231584 4.03811283 -9.25 1.1875 C-5.99828436 -0.52868326 -3.62539838 -0.38162088 0 0 Z " fill="#000000" transform="translate(92,258)"/>
<path d="M0 0 C2.86916187 2.51051663 3.78664803 4.33149715 4.9375 7.9375 C5.01704675 11.83529079 4.15489416 13.76765877 2 17 C-0.71083547 19.1979747 -2.48957172 19.92397877 -5.9375 20.4375 C-9.8124426 19.88393677 -11.95425348 18.40826469 -15 16 C-16.73631636 12.52736727 -16.60190402 8.78806987 -16 5 C-11.19738834 -1.06645683 -7.27922186 -1.87809105 0 0 Z " fill="#000000" transform="translate(467,267)"/>
</svg>
